<?xml version="1.0" standalone="no"?>
<!DOCTYPE svg PUBLIC "-//W3C//DTD SVG 20010904//EN"
 "http://www.w3.org/TR/2001/REC-SVG-20010904/DTD/svg10.dtd">
<svg version="1.0" xmlns="http://www.w3.org/2000/svg"
 width="253.000000pt" height="256.000000pt" viewBox="0 0 253.000000 256.000000"
 preserveAspectRatio="xMidYMid meet">
<metadata>
Created by potrace 1.16, written by Peter Selinger 2001-2019
</metadata>
<g transform="translate(0.000000,256.000000) scale(0.100000,-0.100000)"
fill="#000000" stroke="none">
<path d="M0 2058 c0 -276 2 -499 4 -497 2 2 16 49 31 104 14 55 34 115 44 135
10 19 30 62 46 95 97 201 288 399 508 527 80 46 173 82 302 117 l70 20 -502 0
-503 1 0 -502z"/>
<path d="M1595 2539 c109 -29 146 -42 245 -88 118 -53 360 -239 360 -277 0 -7
-11 -21 -25 -30 -14 -9 -25 -22 -25 -29 0 -11 -33 -29 -143 -78 l-38 -17 -46
40 c-265 233 -667 287 -983 130 -108 -53 -161 -91 -254 -179 -137 -132 -234
-303 -278 -490 -27 -115 -25 -111 -44 -111 -10 0 -25 -6 -33 -13 -9 -8 -38
-20 -66 -27 -181 -49 -260 -355 -129 -500 33 -36 34 -39 15 -45 -11 -3 -29
-17 -40 -31 -10 -13 -23 -24 -29 -24 -10 0 -42 76 -42 100 0 8 -9 42 -19 75
l-19 60 -1 -502 -1 -503 503 0 502 1 -110 33 c-117 36 -205 71 -248 99 -15 9
-29 17 -32 17 -7 0 -81 51 -155 107 -65 48 -182 167 -175 176 3 4 2 5 -1 3
-11 -8 -130 161 -130 183 1 8 8 17 16 22 12 6 252 102 311 124 11 4 29 -16 64
-72 66 -105 208 -245 313 -307 601 -358 1348 50 1421 777 9 91 3 254 -12 319
-1 4 43 27 98 49 141 58 153 61 158 41 3 -10 5 209 6 486 l1 502 -502 -1 -503
0 70 -20z m-160 -309 c166 -19 286 -66 428 -168 50 -36 76 -61 72 -70 -3 -7
-5 -25 -5 -38 0 -34 -15 -30 -73 22 -65 57 -231 138 -338 165 -69 18 -104 20
-218 17 -147 -5 -229 -25 -354 -89 -242 -122 -427 -389 -467 -674 -14 -97 -34
-114 -43 -37 -12 103 43 282 135 435 81 136 196 245 373 352 17 11 31 18 32
17 2 -1 27 7 55 17 80 29 136 43 208 51 97 11 98 11 195 0z m874 -196 c-5 -6
-12 -42 -14 -80 -10 -135 -23 -236 -31 -244 -5 -4 -19 -11 -32 -15 l-24 -7 7
94 c4 51 11 131 16 178 12 115 12 120 -8 121 -12 0 -7 5 12 14 28 12 31 12 57
-18 17 -21 23 -36 17 -43z m-134 -44 c-7 -48 -6 -50 17 -50 l23 0 -24 -19
c-21 -16 -25 -30 -33 -127 -7 -80 -7 -109 1 -112 18 -6 -7 -32 -30 -32 -31 0
-41 44 -33 142 7 90 3 99 -29 75 -19 -13 -43 -179 -33 -229 4 -21 1 -28 -16
-34 -40 -12 -50 19 -42 125 5 74 4 95 -7 102 -12 8 -12 10 1 18 8 6 17 32 20
61 5 47 8 53 38 66 l33 14 -7 -56 -7 -56 32 16 c28 15 31 21 31 67 0 47 2 51
33 64 17 8 34 14 35 15 2 0 1 -22 -3 -50z m-650 15 c68 -17 206 -83 249 -118
l29 -24 -43 -39 c-24 -21 -50 -38 -58 -36 -8 2 -38 17 -66 32 -117 66 -240 87
-385 66 -161 -24 -317 -125 -401 -259 -28 -45 -40 -56 -62 -57 -15 0 -51 -9
-79 -20 -28 -12 -54 -19 -56 -16 -8 8 56 126 103 193 168 236 488 352 769 278z
m855 -61 c19 -36 22 -49 13 -63 -6 -10 -14 -39 -18 -65 -6 -35 -4 -46 6 -46 9
-1 7 -6 -5 -15 -29 -22 -42 -18 -56 15 -10 24 -10 48 2 124 13 85 13 94 -1 88
-14 -5 -14 -3 -2 11 17 22 30 12 61 -49z m-935 -123 c21 -4 30 -12 30 -26 0
-13 -6 -19 -15 -17 -8 2 -42 7 -75 10 -46 5 -61 11 -63 25 -3 14 4 17 45 16
26 -1 62 -4 78 -8z m481 -63 c-3 -40 -9 -97 -13 -127 -4 -39 -3 -52 5 -47 8 5
10 2 6 -8 -10 -26 -46 -31 -64 -8 -13 16 -15 31 -9 74 12 86 11 140 -3 136
-17 -6 -38 -127 -36 -203 2 -57 1 -60 -22 -60 -36 0 -52 38 -46 107 10 103 58
185 103 173 13 -3 23 -1 23 3 0 9 37 30 54 31 5 1 6 -30 2 -71z m-678 41 c3
-16 -124 -72 -140 -63 -7 5 -12 34 -5 34 1 0 29 11 62 25 64 26 78 27 83 4z
m337 -29 c3 -6 -1 -13 -10 -16 -19 -8 -30 0 -20 15 8 14 22 14 30 1z m104 -54
c19 -23 7 -238 -14 -251 -12 -8 -20 -5 -31 10 -11 15 -14 45 -12 130 2 60 8
113 13 117 16 12 31 9 44 -6z m-652 -17 c8 -8 -3 -26 -43 -66 -49 -50 -74 -60
-74 -30 0 13 88 107 99 107 4 0 12 -5 18 -11z m560 -40 c9 -19 10 -47 3 -110
-5 -46 -10 -91 -10 -100 0 -16 -55 -47 -65 -37 -3 3 -1 36 4 74 13 94 16 162
8 170 -11 11 14 35 32 32 9 -2 21 -15 28 -29z m-380 7 c-3 -7 -8 -74 -12 -150
-7 -128 -7 -136 11 -136 16 0 16 -2 -5 -16 -18 -13 -22 -24 -19 -58 3 -40 2
-41 -27 -42 -35 0 -58 -11 -50 -24 9 -14 -54 -23 -70 -10 -50 42 -25 228 34
260 29 15 56 13 43 -2 -26 -33 -41 -206 -17 -201 19 4 53 342 35 353 -7 4 3
13 27 23 48 20 56 21 50 3z m1233 10 c0 -2 3 -11 6 -19 4 -11 -24 -27 -108
-61 -62 -26 -122 -51 -133 -56 -11 -5 -49 -20 -85 -34 -138 -52 -535 -217
-567 -236 -19 -11 -42 -20 -51 -20 -9 0 -28 -7 -42 -15 -14 -8 -35 -19 -47
-24 -19 -9 -23 -18 -21 -53 0 -24 5 -45 9 -48 4 -3 5 -28 1 -55 -7 -48 -8 -49
-57 -67 -28 -10 -50 -18 -50 -18 -1 0 -1 27 0 60 0 55 2 60 20 58 16 -2 21
-12 23 -46 4 -50 22 -47 22 5 0 57 -38 77 -94 48 -35 -18 -50 -11 -41 22 5 22
3 24 -17 18 -13 -4 -41 -15 -63 -25 -22 -9 -139 -57 -260 -105 -121 -49 -329
-133 -463 -187 -134 -55 -250 -97 -258 -94 -39 15 0 38 224 129 425 172 407
164 410 189 7 59 12 69 35 66 16 -2 23 -11 25 -30 4 -31 17 -37 26 -12 3 9 10
64 15 122 22 250 20 240 54 252 17 5 31 9 33 8 7 -8 -27 -290 -40 -325 -8 -24
-12 -43 -8 -43 20 0 266 108 270 118 2 6 -8 17 -22 23 -20 10 -22 14 -12 25 7
7 22 10 34 8 11 -3 23 -1 26 5 4 6 16 11 26 11 11 0 24 9 30 20 9 17 7 22 -15
30 -70 27 -55 199 22 260 30 24 66 26 83 5 24 -28 14 -63 -34 -117 -47 -53
-58 -92 -34 -116 9 -9 16 -8 30 5 24 22 23 2 -2 -25 l-20 -21 29 -20 c39 -28
59 -26 133 8 35 16 189 79 343 140 154 61 350 140 435 175 146 60 180 72 180
62z m-968 -43 c24 -28 27 -61 14 -160 -13 -105 -29 -133 -65 -113 -14 7 -20
18 -17 28 4 14 13 74 30 200 2 12 -1 25 -6 28 -9 6 9 34 22 34 4 0 14 -8 22
-17z m-582 -127 c0 -7 -6 -21 -14 -32 -12 -15 -17 -16 -27 -7 -18 17 4 65 26
57 8 -3 15 -12 15 -18z m-124 -23 c-9 -34 -28 -342 -22 -359 8 -20 -10 -44
-33 -44 -35 0 -41 33 -31 167 6 70 13 147 16 171 5 36 4 42 -12 43 -12 0 -3 8
21 19 52 24 68 25 61 3z m1468 -55 c16 -117 17 -171 6 -263 -50 -418 -319
-738 -703 -837 -105 -27 -298 -29 -400 -4 -219 53 -427 197 -550 381 -52 78
-56 90 -28 98 15 4 28 -8 57 -52 83 -125 216 -240 355 -305 123 -59 185 -71
354 -71 129 0 160 3 225 23 156 50 269 121 386 244 105 110 177 244 219 403
20 76 30 272 17 348 -8 49 -7 59 7 67 34 20 49 12 55 -32z m-900 -29 c-3 -5
-10 -7 -15 -3 -5 3 -7 10 -3 15 3 5 10 7 15 3 5 -3 7 -10 3 -15z m-704 -4 c0
-8 -7 -15 -15 -15 -8 0 -15 7 -15 15 0 8 7 15 15 15 8 0 15 -7 15 -15z m1444
-72 c7 -62 5 -104 -8 -178 -29 -174 -96 -307 -215 -426 -87 -87 -181 -146
-296 -185 -72 -25 -94 -28 -220 -28 -132 -1 -145 1 -228 31 -108 38 -181 81
-262 156 -61 55 -135 145 -135 163 0 5 27 20 61 33 l61 23 16 -23 c95 -137
276 -240 448 -255 93 -8 209 16 304 62 99 48 221 169 266 264 57 118 67 158
72 283 l4 118 52 24 c28 13 56 22 61 21 6 -1 14 -39 19 -83z m-1202 52 c8 -19
9 -51 2 -118 -6 -51 -6 -95 -2 -98 14 -9 -20 -32 -37 -25 -29 11 -37 54 -25
134 7 41 9 84 6 97 -10 40 38 48 56 10z m-509 -102 c-2 -32 -7 -74 -10 -93 -5
-32 -7 -30 -19 34 -15 79 -26 96 -52 80 -43 -26 -77 -242 -53 -330 17 -62 57
-69 86 -15 8 14 14 20 15 13 0 -27 -57 -72 -92 -72 -75 0 -114 71 -106 192 9
132 75 222 165 223 24 1 49 7 55 13 7 7 13 12 13 12 1 0 0 -26 -2 -57z m1517
22 c0 -28 -4 -35 -19 -35 -13 0 -20 9 -23 30 -2 16 0 32 6 34 28 11 36 5 36
-29z m-1214 3 c-8 -13 -17 -45 -20 -73 -18 -151 -18 -165 -4 -165 17 0 -11
-20 -29 -20 -42 0 -58 116 -28 200 20 56 42 80 72 80 22 0 23 -1 9 -22z m1142
-96 c3 -47 1 -53 -15 -50 -14 2 -19 14 -21 56 -3 47 -1 53 15 50 14 -2 19 -14
21 -56z m-1291 26 c42 -47 35 -161 -14 -218 -34 -41 -47 -38 -38 8 11 56 22
195 17 210 -9 26 -19 10 -30 -50 -20 -111 -23 -167 -12 -189 18 -32 -18 -21
-44 14 -41 56 -15 188 46 231 31 22 51 20 75 -6z m1153 12 c0 -5 -7 -10 -16
-10 -8 0 -12 5 -9 10 3 6 10 10 16 10 5 0 9 -4 9 -10z m78 -48 c3 -43 -12 -76
-31 -69 -7 2 -12 73 -8 113 1 3 9 4 19 2 12 -2 18 -15 20 -46z m-80 -40 c3
-47 1 -53 -15 -50 -13 2 -20 16 -24 48 -7 52 -4 62 19 58 13 -2 18 -16 20 -56z
m-73 -13 c-5 -37 -4 -50 4 -45 7 5 9 1 5 -9 -4 -9 -15 -15 -28 -13 -16 2 -22
12 -27 43 l-5 40 -8 -35 c-4 -20 -6 -42 -4 -50 5 -22 -29 -23 -41 -2 -14 26
14 113 34 106 7 -3 16 -1 20 5 3 6 18 11 32 11 24 0 25 -1 18 -51z m263 42
c14 -8 6 -58 -20 -123 -11 -30 -16 -32 -36 -19 -11 7 -11 15 2 46 9 20 16 50
16 65 0 38 12 48 38 31z m-398 -82 c0 -16 4 -29 10 -29 13 0 9 -49 -5 -60 -6
-5 -17 -3 -26 3 -19 14 -32 114 -15 120 22 8 36 -6 36 -34z m-202 -51 c7 -7
12 -24 12 -39 0 -49 -57 -84 -89 -55 -16 15 -19 14 -28 -6 -11 -25 -73 -66
-73 -49 0 5 5 13 10 16 6 3 10 28 10 55 0 40 4 51 21 61 15 7 24 8 32 0 7 -7
18 -4 35 9 28 23 53 25 70 8z m-205 -105 c-4 -35 -13 -63 -22 -70 -13 -9 -8
-16 37 -44 54 -33 62 -46 36 -56 -9 -3 -38 10 -70 32 -52 36 -65 57 -44 70 6
3 10 28 10 55 0 36 5 52 18 59 37 22 43 14 35 -46z m722 16 c9 -13 -40 -83
-72 -104 -47 -31 -48 -1 -1 58 43 55 61 67 73 46z m-837 -25 c-9 -9 -21 -13
-27 -9 -16 10 -3 25 22 25 20 0 20 -1 5 -16z m670 -142 c2 -7 -18 -22 -50 -36
-71 -33 -93 -36 -93 -13 0 13 17 26 55 42 60 25 81 27 88 7z m-292 -42 c55 0
62 -2 67 -21 6 -21 4 -22 -89 -17 -98 5 -119 13 -109 40 5 13 13 14 38 7 18
-5 59 -9 93 -9z"/>
<path d="M1326 1575 c-9 -26 -19 -115 -12 -115 12 0 36 68 36 100 0 31 -14 41
-24 15z"/>
<path d="M1285 1240 c-3 -5 -2 -10 4 -10 5 0 13 5 16 10 3 6 2 10 -4 10 -5 0
-13 -4 -16 -10z"/>
<path d="M1325 1161 c-20 -4 -26 -9 -18 -14 11 -7 53 7 53 18 0 3 -1 4 -2 4
-2 -1 -16 -4 -33 -8z"/>
<path d="M1251 1137 c2 -1 13 -9 24 -17 19 -14 19 -14 6 3 -7 9 -18 17 -24 17
-6 0 -8 -1 -6 -3z"/>
<path d="M1229 1045 c-3 -5 -7 -30 -8 -55 -2 -33 1 -42 9 -34 6 6 10 31 8 55
-2 24 -6 40 -9 34z"/>
<path d="M2507 940 c-10 -33 -17 -68 -17 -77 0 -10 -14 -45 -30 -78 -16 -33
-30 -65 -30 -71 0 -5 -13 -31 -30 -57 -16 -26 -27 -47 -24 -47 3 0 -10 -21
-28 -47 -56 -80 -96 -132 -99 -130 -2 1 -3 0 -2 -2 9 -14 -216 -216 -248 -224
-6 -1 -24 -14 -41 -29 -17 -16 -34 -28 -39 -28 -6 0 -21 -8 -36 -17 -43 -28
-131 -63 -248 -99 l-110 -33 503 -1 502 0 0 500 c0 275 -2 500 -3 500 -2 0
-11 -27 -20 -60z"/>
</g>
</svg>
