<?xml version="1.0" encoding="utf-8"?>
<svg xmlns="http://www.w3.org/2000/svg" style="margin: auto; background: none; display: block; shape-rendering: auto; animation-play-state: running; animation-delay: 0s;" width="260" height="52" preserveAspectRatio="xMidYMid">
<style type="text/css" style="animation-play-state: running; animation-delay: 0s;">
  text {
    text-anchor: middle; font-size: 43px; opacity: 0;
  }
</style>
<g style="transform-origin: 130px 26px 0px; transform: scale(0.5375); animation-play-state: running; animation-delay: 0s;">
<g transform="translate(130,26)" style="animation-play-state: running; animation-delay: 0s;">
  <g transform="translate(0,0)" style="animation-play-state: running; animation-delay: 0s;"><g class="path" style="transform: scale(0.91); transform-origin: -206.107px -4.99413px 0px; animation: 1.72414s linear -1.03448s infinite normal forwards running breath-da0756de-8ce2-4bfa-9599-a61184bd6e42;"><path d="M36.96-18.32L36.96-18.32L36.96-18.32Q38.48-18.32 38.48-14.48L38.48-14.48L38.48-14.48Q38.48-10.64 37.04-7.60L37.04-7.60L37.04-7.60Q35.60-4.56 33.56-2.88L33.56-2.88L33.56-2.88Q31.52-1.20 28.96-0.16L28.96-0.16L28.96-0.16Q20.40 3.60 12.96-0.32L12.96-0.32L12.96-0.32Q9.20-2.32 7.20-5.08L7.20-5.08L7.20-5.08Q5.20-7.84 4-11.68L4-11.68L4-11.68Q2.16-17.44 2.16-23.76L2.16-23.76L2.16-23.76Q2.16-30.08 3.36-35.60L3.36-35.60L3.36-35.60Q4.56-41.12 7.04-46.12L7.04-46.12L7.04-46.12Q9.52-51.12 14.08-54.16L14.08-54.16L14.08-54.16Q18.64-57.20 24.64-57.20L24.64-57.20L24.64-57.20Q27.20-57.20 29.96-56.36L29.96-56.36L29.96-56.36Q32.72-55.52 34.48-54.28L34.48-54.28L34.48-54.28Q36.24-53.04 37.60-50.48L37.60-50.48L37.60-50.48Q38.96-47.92 38.96-44.48L38.96-44.48L38.96-44.48Q38.96-40.80 37.20-37.84L37.20-37.84L37.20-37.84Q36.40-36.48 34.64-35.40L34.64-35.40L34.64-35.40Q32.88-34.32 30.48-34.32L30.48-34.32L30.48-34.32Q26.80-34.32 25.28-37.60L25.28-37.60L25.28-37.60Q24.64-38.88 24.64-40.40L24.64-40.40L24.64-40.40Q24.64-41.92 25.68-42.16L25.68-42.16L25.68-42.16Q26.80-42.48 27.76-43.92L27.76-43.92L27.76-43.92Q28.72-45.36 28.72-47.28L28.72-47.28L28.72-47.28Q28.72-48.80 27.92-49.92L27.92-49.92L27.92-49.92Q26.40-51.92 23.52-51.92L23.52-51.92L23.52-51.92Q20.64-51.92 18.28-49.28L18.28-49.28L18.28-49.28Q15.92-46.64 14.72-42.64L14.72-42.64L14.72-42.64Q12.32-34.64 12.32-27.92L12.32-27.92L12.32-27.92Q12.32-21.20 14.16-17.12L14.16-17.12L14.16-17.12Q16.40-12.08 19.84-10.40L19.84-10.40L19.84-10.40Q22-9.36 24.80-9.36L24.80-9.36L24.80-9.36Q29.52-9.36 33.28-13.60L33.28-13.60L33.28-13.60Q34.88-15.28 35.92-17.60L35.92-17.60L35.92-17.60Q36.32-18.32 36.96-18.32" fill="#51cacc" stroke="none" stroke-width="none" transform="translate(-226.66669464111328,22.765453491210938)" style="fill: rgb(81, 202, 204); animation-play-state: running; animation-delay: 0s;"></path></g><g class="path" style="transform: scale(0.91); transform-origin: -163.707px -5.19455px 0px; animation: 1.72414s linear -0.931035s infinite normal forwards running breath-da0756de-8ce2-4bfa-9599-a61184bd6e42;"><path d="M63.84-51.36L63.84-51.36L63.84-51.36Q60.96-51.36 59.04-49.28L59.04-49.28L59.04-49.28Q55.68-45.60 55.68-39.96L55.68-39.96L55.68-39.96Q55.68-34.32 58.56-33.20L58.56-33.20L58.56-33.20Q59.28-32.96 59.28-32.16L59.28-32.16L59.28-32.16Q59.28-29.76 57.68-28.12L57.68-28.12L57.68-28.12Q56.08-26.48 53.76-26.16L53.76-26.16L53.76-26.16Q53.04-26.16 53.04-25.60L53.04-25.60L53.04-25.60Q52.96-24.72 52.96-23.08L52.96-23.08L52.96-23.08Q52.96-21.44 53.12-19.48L53.12-19.48L53.12-19.48Q53.28-17.52 53.88-14.84L53.88-14.84L53.88-14.84Q54.48-12.16 55.48-10.20L55.48-10.20L55.48-10.20Q56.48-8.24 58.36-6.84L58.36-6.84L58.36-6.84Q60.24-5.44 63.24-5.44L63.24-5.44L63.24-5.44Q66.24-5.44 68.64-7.84L68.64-7.84L68.64-7.84Q71.04-10.24 72-14.08L72-14.08L72-14.08Q73.76-20.80 73.76-27L73.76-27L73.76-27Q73.76-33.20 72.96-37.92L72.96-37.92L72.96-37.92Q72.16-42.64 71.08-45.12L71.08-45.12L71.08-45.12Q70-47.60 68.48-49.12L68.48-49.12L68.48-49.12Q66.96-50.64 65.92-51L65.92-51L65.92-51Q64.88-51.36 63.84-51.36zM49.28-43.44L49.28-43.44L49.60-43.92L49.60-43.92Q50.40-47.60 52.20-50.28L52.20-50.28L52.20-50.28Q54-52.96 55.80-54.28L55.80-54.28L55.80-54.28Q57.60-55.60 59.84-56.32L59.84-56.32L59.84-56.32Q62.80-57.28 65.04-57.28L65.04-57.28L65.04-57.28Q70.40-57.28 74.28-54.80L74.28-54.80L74.28-54.80Q78.16-52.32 80.16-48.08L80.16-48.08L80.16-48.08Q83.84-40 83.84-29.76L83.84-29.76L83.84-29.76Q83.84-12.56 75.84-4.72L75.84-4.72L75.84-4.72Q71.92-0.88 67.20 0.48L67.20 0.48L67.20 0.48Q64.24 1.36 61.52 1.36L61.52 1.36L61.52 1.36Q51.52 1.36 46.80-5.48L46.80-5.48L46.80-5.48Q42.08-12.32 42.08-22.80L42.08-22.80L42.08-22.80Q42.08-28.88 43.12-33.96L43.12-33.96L43.12-33.96Q44.16-39.04 45.28-41.12L45.28-41.12L46.32-43.20L46.32-43.20Q46.64-43.92 47.36-43.92L47.36-43.92L47.36-43.92Q48.08-43.92 48.44-43.80L48.44-43.80L48.44-43.80Q48.80-43.68 49-43.56L49-43.56L49-43.56Q49.20-43.44 49.28-43.44" fill="#51cacc" stroke="none" stroke-width="none" transform="translate(-226.66669464111328,22.765453491210938)" style="fill: rgb(157, 248, 113); animation-play-state: running; animation-delay: 0s;"></path></g><g class="path" style="transform: scale(0.91); transform-origin: -119.387px -5.35455px 0px; animation: 1.72414s linear -0.827586s infinite normal forwards running breath-da0756de-8ce2-4bfa-9599-a61184bd6e42;"><path d="M104.64-51.84L104.64-51.84L104.64-51.84Q103.20-51.84 102.16-51.36L102.16-51.36L102.16-51.36Q101.12-50.88 101.12-50.16L101.12-50.16L101.12-50.16Q100.16-46.80 100.16-30.12L100.16-30.12L100.16-30.12Q100.16-13.44 100.08-11.44L100.08-11.44L100.08-11.44Q101.60-9.04 104.80-9.04L104.80-9.04L104.80-9.04Q110.48-9.04 113.36-15.32L113.36-15.32L113.36-15.32Q116.24-21.60 116.24-31.08L116.24-31.08L116.24-31.08Q116.24-40.56 113.44-46.20L113.44-46.20L113.44-46.20Q110.64-51.84 104.64-51.84zM89.36 0.88L89.36 0.88L89.36 0.88Q88.16 0.72 88.16 0.16L88.16 0.16L88.40-0.80L88.40-0.80Q90.40-5.12 90.40-31.92L90.40-31.92L90.40-31.92Q90.40-44.72 89.72-47.92L89.72-47.92L89.72-47.92Q89.04-51.12 88.64-52L88.64-52L88.24-52.80L88.24-52.80Q87.92-53.12 87.92-53.72L87.92-53.72L87.92-53.72Q87.92-54.32 88.88-54.72L88.88-54.72L88.88-54.72Q95.12-57.20 105.28-57.20L105.28-57.20L105.28-57.20Q126.64-57.20 126.64-30L126.64-30L126.64-30Q126.64-19.36 122.88-10.56L122.88-10.56L122.88-10.56Q121.36-7.20 119.36-4.76L119.36-4.76L119.36-4.76Q117.36-2.32 114.12-0.68L114.12-0.68L114.12-0.68Q110.88 0.96 106.96 0.96L106.96 0.96L106.96 0.96Q106.16 0.88 104.92 0.72L104.92 0.72L104.92 0.72Q103.68 0.56 101.24-0.48L101.24-0.48L101.24-0.48Q98.80-1.52 97.92-3.20L97.92-3.20L97.92-3.20Q94.96 0.88 89.36 0.88" fill="#51cacc" stroke="none" stroke-width="none" transform="translate(-226.66669464111328,22.765453491210938)" style="fill: rgb(224, 255, 119); animation-play-state: running; animation-delay: 0s;"></path></g><g class="path" style="transform: scale(0.91); transform-origin: -77.5867px -5.03455px 0px; animation: 1.72414s linear -0.724138s infinite normal forwards running breath-da0756de-8ce2-4bfa-9599-a61184bd6e42;"><path d="M158.64-52L158.64-52L158.32-54.96L158.32-54.96Q158.32-56.40 162-57L162-57L162-57Q165.68-57.60 169.20-57.60L169.20-57.60L169.20-57.60Q172.72-57.60 172.72-56.40L172.72-56.40L172.72-56.40Q172.72-55.84 171.92-55.04L171.92-55.04L171.92-55.04Q168.80-51.76 164.36-44.32L164.36-44.32L164.36-44.32Q159.92-36.88 157.04-31.04L157.04-31.04L154.16-25.28L154.16-25.28Q152.72-22.24 152.72-18.60L152.72-18.60L152.72-18.60Q152.72-14.96 152.96-11.40L152.96-11.40L152.96-11.40Q153.20-7.84 153.44-5.36L153.44-5.36L153.44-5.36Q153.68-2.88 153.68-2.48L153.68-2.48L153.68-2.48Q153.68-0.48 150 0.76L150 0.76L150 0.76Q146.32 2 143.96 2L143.96 2L143.96 2Q141.60 2 141.60 1.12L141.60 1.12L141.84 0.08L141.84 0.08Q143.20-7.20 143.20-17.20L143.20-17.20L143.20-17.20Q143.20-19.68 142.40-23.36L142.40-23.36L142.16-24.40L142.16-24.40Q137.04-38.24 132.56-44.80L132.56-44.80L132.56-44.80Q128.72-50.64 126.96-51.68L126.96-51.68L126.24-52.16L126.24-52.16Q125.44-52.64 125.44-53.28L125.44-53.28L125.44-53.28Q125.44-54.64 129.60-56.08L129.60-56.08L129.60-56.08Q133.76-57.52 135.88-57.52L135.88-57.52L135.88-57.52Q138-57.52 138.72-56.24L138.72-56.24L138.72-56.24Q145.92-41.20 149.92-31.92L149.92-31.92L149.92-31.92Q150.16-31.44 150.60-31.44L150.60-31.44L150.60-31.44Q151.04-31.44 151.64-32.40L151.64-32.40L151.64-32.40Q152.24-33.36 153.44-35.44L153.44-35.44L153.44-35.44Q154.64-37.52 156.64-42.84L156.64-42.84L156.64-42.84Q158.64-48.16 158.64-52" fill="#51cacc" stroke="none" stroke-width="none" transform="translate(-226.66669464111328,22.765453491210938)" style="fill: rgb(222, 157, 214); animation-play-state: running; animation-delay: 0s;"></path></g><g class="path" style="transform: scale(0.91); transform-origin: -35.0667px -5.35455px 0px; animation: 1.72414s linear -0.62069s infinite normal forwards running breath-da0756de-8ce2-4bfa-9599-a61184bd6e42;"><path d="M188.96-51.84L188.96-51.84L188.96-51.84Q187.52-51.84 186.48-51.36L186.48-51.36L186.48-51.36Q185.44-50.88 185.44-50.16L185.44-50.16L185.44-50.16Q184.48-46.80 184.48-30.12L184.48-30.12L184.48-30.12Q184.48-13.44 184.40-11.44L184.40-11.44L184.40-11.44Q185.92-9.04 189.12-9.04L189.12-9.04L189.12-9.04Q194.80-9.04 197.68-15.32L197.68-15.32L197.68-15.32Q200.56-21.60 200.56-31.08L200.56-31.08L200.56-31.08Q200.56-40.56 197.76-46.20L197.76-46.20L197.76-46.20Q194.96-51.84 188.96-51.84zM173.68 0.88L173.68 0.88L173.68 0.88Q172.48 0.72 172.48 0.16L172.48 0.16L172.72-0.80L172.72-0.80Q174.72-5.12 174.72-31.92L174.72-31.92L174.72-31.92Q174.72-44.72 174.04-47.92L174.04-47.92L174.04-47.92Q173.36-51.12 172.96-52L172.96-52L172.56-52.80L172.56-52.80Q172.24-53.12 172.24-53.72L172.24-53.72L172.24-53.72Q172.24-54.32 173.20-54.72L173.20-54.72L173.20-54.72Q179.44-57.20 189.60-57.20L189.60-57.20L189.60-57.20Q210.96-57.20 210.96-30L210.96-30L210.96-30Q210.96-19.36 207.20-10.56L207.20-10.56L207.20-10.56Q205.68-7.20 203.68-4.76L203.68-4.76L203.68-4.76Q201.68-2.32 198.44-0.68L198.44-0.68L198.44-0.68Q195.20 0.96 191.28 0.96L191.28 0.96L191.28 0.96Q190.48 0.88 189.24 0.72L189.24 0.72L189.24 0.72Q188 0.56 185.56-0.48L185.56-0.48L185.56-0.48Q183.12-1.52 182.24-3.20L182.24-3.20L182.24-3.20Q179.28 0.88 173.68 0.88" fill="#51cacc" stroke="none" stroke-width="none" transform="translate(-226.66669464111328,22.765453491210938)" style="fill: rgb(255, 112, 142); animation-play-state: running; animation-delay: 0s;"></path></g><g class="path" style="transform: scale(0.91); transform-origin: 3.01331px -5.39455px 0px; animation: 1.72414s linear -0.517241s infinite normal forwards running breath-da0756de-8ce2-4bfa-9599-a61184bd6e42;"><path d="M248.88-9.92L248.88-9.92L248.88-9.92Q248.88-4.32 245.32-1.60L245.32-1.60L245.32-1.60Q241.76 1.12 235.36 1.12L235.36 1.12L235.36 1.12Q225.12 1.12 220.28-5.68L220.28-5.68L220.28-5.68Q215.44-12.48 215.44-23.44L215.44-23.44L215.44-23.44Q215.44-25.20 215.60-28.56L215.60-28.56L211.12-28.56L211.12-28.56Q210.48-28.56 210.48-29.04L210.48-29.04L210.48-29.04Q210.48-30.40 211.84-32.32L211.84-32.32L211.84-32.32Q213.20-34.24 214.80-34.24L214.80-34.24L216.32-34.24L216.32-34.24Q217.36-40 219.72-44.40L219.72-44.40L219.72-44.40Q222.08-48.80 224.68-51.20L224.68-51.20L224.68-51.20Q227.28-53.60 230.40-55.04L230.40-55.04L230.40-55.04Q235.36-57.44 240.80-57.44L240.80-57.44L240.80-57.44Q246.24-57.44 247.60-55.68L247.60-55.68L247.60-55.68Q248.24-54.80 248.24-52.44L248.24-52.44L248.24-52.44Q248.24-50.08 247.68-50.08L247.68-50.08L247.68-50.08Q247.60-50.08 246.96-50.40L246.96-50.40L246.96-50.40Q244.88-51.36 241.76-51.36L241.76-51.36L241.76-51.36Q234.96-51.36 231.16-46.56L231.16-46.56L231.16-46.56Q227.36-41.76 226.08-34.24L226.08-34.24L226.08-34.24Q232.16-34.32 242.56-34.32L242.56-34.32L242.56-34.32Q243.36-34.32 243.36-33.76L243.36-33.76L243.36-33.76Q243.36-32.48 242.08-30.52L242.08-30.52L242.08-30.52Q240.80-28.56 239.20-28.56L239.20-28.56L225.44-28.56L225.44-28.56Q225.36-27.60 225.36-24.36L225.36-24.36L225.36-24.36Q225.36-21.12 226.52-17.56L226.52-17.56L226.52-17.56Q227.68-14 230.84-11.52L230.84-11.52L230.84-11.52Q234-9.04 239.04-9.04L239.04-9.04L239.04-9.04Q244.08-9.04 247.52-11.28L247.52-11.28L247.52-11.28Q247.92-11.60 248.24-11.60L248.24-11.60L248.24-11.60Q248.88-11.60 248.88-9.92" fill="#51cacc" stroke="none" stroke-width="none" transform="translate(-226.66669464111328,22.765453491210938)" style="fill: rgb(81, 202, 204); animation-play-state: running; animation-delay: 0s;"></path></g><g class="path" style="transform: scale(0.91); transform-origin: 51.3333px -5.79455px 0px; animation: 1.72414s linear -0.413793s infinite normal forwards running breath-da0756de-8ce2-4bfa-9599-a61184bd6e42;"><path d="M254.32-31.12L254.32-31.12L253.92-46.24L253.92-46.24Q253.92-49.84 253.12-51.92L253.12-51.92L253.12-51.92Q252.32-54 252.32-54.16L252.32-54.16L252.32-54.16Q252.32-55.92 257.72-56.88L257.72-56.88L257.72-56.88Q263.12-57.84 265.96-57.84L265.96-57.84L265.96-57.84Q268.80-57.84 269.04-56.48L269.04-56.48L269.04-56.48Q274.08-34 277.52-25.28L277.52-25.28L277.52-25.28Q277.92-24.32 278.36-24.32L278.36-24.32L278.36-24.32Q278.80-24.32 279.12-25.04L279.12-25.04L279.12-25.04Q284.48-40.16 288.56-54.96L288.56-54.96L288.56-54.96Q288.88-55.92 290.16-56.44L290.16-56.44L290.16-56.44Q291.44-56.96 294.60-57.44L294.60-57.44L294.60-57.44Q297.76-57.92 300.88-57.92L300.88-57.92L300.88-57.92Q304-57.92 304-56.64L304-56.64L304-56.64Q304-56.56 303.76-55.40L303.76-55.40L303.76-55.40Q303.52-54.24 303.28-52.56L303.28-52.56L303.28-52.56Q303.04-50.88 302.72-48.48L302.72-48.48L302.72-48.48Q302-42.96 301.80-35.80L301.80-35.80L301.80-35.80Q301.60-28.64 301.60-21.44L301.60-21.44L301.76-13.04L301.76-13.04Q301.76-7.28 302.52-4.84L302.52-4.84L302.52-4.84Q303.28-2.40 303.28-2.04L303.28-2.04L303.28-2.04Q303.28-1.68 302.72-1.20L302.72-1.20L302.72-1.20Q300.24 0.80 295.20 0.80L295.20 0.80L295.20 0.80Q292 0.80 291.60-1.36L291.60-1.36L291.60-1.36Q291.36-2.48 291.36-4.92L291.36-4.92L291.36-4.92Q291.36-7.36 291.84-19.92L291.84-19.92L291.84-19.92Q292.32-32.48 292.32-38.20L292.32-38.20L292.32-38.20Q292.32-43.92 291.68-43.92L291.68-43.92L291.68-43.92Q291.60-43.92 291.60-43.88L291.60-43.88L291.60-43.88Q291.60-43.84 291.36-43.76L291.36-43.76L291.36-43.76Q291.12-43.68 290.12-41.28L290.12-41.28L290.12-41.28Q289.12-38.88 286.16-29.44L286.16-29.44L286.16-29.44Q283.20-20 280.80-11.80L280.80-11.80L280.80-11.80Q278.40-3.60 278.16-2.96L278.16-2.96L278.16-2.96Q277.28-0.80 274.80-0.80L274.80-0.80L274.80-0.80Q273.60-0.80 272.88-1.68L272.88-1.68L272.88-1.68Q270.32-13.52 263.76-35.52L263.76-35.52L261.52-42.80L261.52-42.80Q261.36-43.20 261.20-43.20L261.20-43.20L261.20-43.20Q260.80-43.20 260.64-42.64L260.64-42.64L260.64-42.64Q260.32-37.44 260.32-22.20L260.32-22.20L260.32-22.20Q260.32-6.96 261.44-2.96L261.44-2.96L261.44-2.96Q261.52-2.80 261.52-2.48L261.52-2.48L261.52-2.48Q261.52-0.80 258.88-0.04L258.88-0.04L258.88-0.04Q256.24 0.72 254.12 0.72L254.12 0.72L254.12 0.72Q252 0.72 252-0.24L252-0.24L252-0.24Q252-0.32 252.40-1.52L252.40-1.52L252.40-1.52Q253.60-5.60 253.96-13.36L253.96-13.36L253.96-13.36Q254.32-21.12 254.32-31.12" fill="#51cacc" stroke="none" stroke-width="none" transform="translate(-226.66669464111328,22.765453491210938)" style="fill: rgb(157, 248, 113); animation-play-state: running; animation-delay: 0s;"></path></g><g class="path" style="transform: scale(0.91); transform-origin: 102.213px -5.51455px 0px; animation: 1.72414s linear -0.310345s infinite normal forwards running breath-da0756de-8ce2-4bfa-9599-a61184bd6e42;"><path d="M328.80-45.84L328.80-45.84L328.80-45.84Q322.48-37.92 319.68-30L319.68-30L319.76-30L319.76-30Q330.88-30 332.52-29.96L332.52-29.96L332.52-29.96Q334.16-29.92 334.32-30.08L334.32-30.08L334.32-30.08Q334.48-30.24 334.56-30.48L334.56-30.48L334.56-30.48Q333.20-40.32 332.40-43.88L332.40-43.88L332.40-43.88Q331.60-47.44 330.80-47.44L330.80-47.44L330.80-47.44Q330-47.44 328.80-45.84zM321.68-8.16L321.68-8.16L323.44-8.48L323.44-8.48Q324.24-8.48 324.24-7.60L324.24-7.60L324.24-7.60Q324.24-4.80 323.12-2.88L323.12-2.88L323.12-2.88Q322-0.96 320.32-0.16L320.32-0.16L320.32-0.16Q317.60 1.20 315.68 1.20L315.68 1.20L315.68 1.20Q312 1.20 310.16-1.56L310.16-1.56L310.16-1.56Q308.32-4.32 308.32-9.88L308.32-9.88L308.32-9.88Q308.32-15.44 311.36-24.32L311.36-24.32L306.72-24.32L306.72-24.32Q305.84-24.32 305.84-25.20L305.84-25.20L305.84-25.20Q305.84-26.08 307.20-28.04L307.20-28.04L307.20-28.04Q308.56-30 310.08-30L310.08-30L313.68-30L313.68-30Q319.36-42.64 327.04-51.84L327.04-51.84L327.04-51.84Q329.04-54.24 331.96-56.32L331.96-56.32L331.96-56.32Q334.88-58.40 336.48-58.40L336.48-58.40L336.48-58.40Q338.08-58.40 338.88-56.96L338.88-56.96L338.88-56.96Q340.96-53.60 343.76-32.40L343.76-32.40L343.76-32.40Q344.72-23.28 347.08-13.56L347.08-13.56L347.08-13.56Q349.44-3.84 351.44-2.24L351.44-2.24L351.44-2.24Q351.92-1.92 351.92-1.44L351.92-1.44L351.92-1.44Q351.92-0.24 348.52 0.80L348.52 0.80L348.52 0.80Q345.12 1.84 343.32 1.84L343.32 1.84L343.32 1.84Q341.52 1.84 340.56 1.40L340.56 1.40L340.56 1.40Q339.60 0.96 339.36 0.48L339.36 0.48L339.36 0.48Q337.92-2.64 336.48-14.40L336.48-14.40L336-18.16L336-18.16Q335.68-21.92 335.36-23.84L335.36-23.84L334.80-24.24L318.08-24.32L318.08-24.32Q317.12-20.24 317.12-17.20L317.12-17.20L317.12-17.20Q317.12-14.16 317.32-12.76L317.32-12.76L317.32-12.76Q317.52-11.36 318.64-9.76L318.64-9.76L318.64-9.76Q319.76-8.16 321.68-8.16" fill="#51cacc" stroke="none" stroke-width="none" transform="translate(-226.66669464111328,22.765453491210938)" style="fill: rgb(224, 255, 119); animation-play-state: running; animation-delay: 0s;"></path></g><g class="path" style="transform: scale(0.91); transform-origin: 138.413px -5.67455px 0px; animation: 1.72414s linear -0.206897s infinite normal forwards running breath-da0756de-8ce2-4bfa-9599-a61184bd6e42;"><path d="M358.48-56.96L358.48-56.96L370.00-56.32L370.00-56.32Q377.68-56.32 381.04-58.16L381.04-58.16L381.04-58.16Q381.52-58.48 381.88-58.48L381.88-58.48L381.88-58.48Q382.24-58.48 382.24-57.36L382.24-57.36L382.24-57.36Q382.24-56.24 380.88-53.68L380.88-53.68L380.88-53.68Q378.88-49.76 375.12-49.76L375.12-49.76L370.72-49.84L370.72-49.84Q370.08-49.84 369.92-49.12L369.92-49.12L369.92-49.12Q369.36-37.36 369.36-23.72L369.36-23.72L369.36-23.72Q369.36-10.08 370.48-3.20L370.48-3.20L370.48-2.80L370.48-2.80Q370.48-0.80 366.68 0.40L366.68 0.40L366.68 0.40Q362.88 1.60 359.52 1.60L359.52 1.60L359.52 1.60Q357.92 1.60 357.92 0.72L357.92 0.72L357.92 0.72Q357.92 0.48 358.16-0.40L358.16-0.40L358.16-0.40Q359.04-2.16 359.72-17.44L359.72-17.44L359.72-17.44Q360.40-32.72 360.40-40.48L360.40-40.48L360.24-49.20L360.24-49.20Q360.24-49.68 359.76-49.76L359.76-49.76L359.76-49.76Q358.08-50.08 355.92-50.08L355.92-50.08L355.92-50.08Q351.60-50.08 349.52-48.32L349.52-48.32L349.52-48.32Q348.96-47.92 348.44-47.92L348.44-47.92L348.44-47.92Q347.92-47.92 347.92-48.56L347.92-48.56L347.92-48.56Q347.92-49.52 348.92-51.20L348.92-51.20L348.92-51.20Q349.92-52.88 351.04-54.08L351.04-54.08L351.04-54.08Q353.76-56.96 358.48-56.96" fill="#51cacc" stroke="none" stroke-width="none" transform="translate(-226.66669464111328,22.765453491210938)" style="fill: rgb(222, 157, 214); animation-play-state: running; animation-delay: 0s;"></path></g><g class="path" style="transform: scale(0.91); transform-origin: 170.333px -5.67455px 0px; animation: 1.72414s linear -0.103448s infinite normal forwards running breath-da0756de-8ce2-4bfa-9599-a61184bd6e42;"><path d="M390.40-56.96L390.40-56.96L401.92-56.32L401.92-56.32Q409.60-56.32 412.96-58.16L412.96-58.16L412.96-58.16Q413.44-58.48 413.80-58.48L413.80-58.48L413.80-58.48Q414.16-58.48 414.16-57.36L414.16-57.36L414.16-57.36Q414.16-56.24 412.80-53.68L412.80-53.68L412.80-53.68Q410.80-49.76 407.04-49.76L407.04-49.76L402.64-49.84L402.64-49.84Q402.00-49.84 401.84-49.12L401.84-49.12L401.84-49.12Q401.28-37.36 401.28-23.72L401.28-23.72L401.28-23.72Q401.28-10.08 402.40-3.20L402.40-3.20L402.40-2.80L402.40-2.80Q402.40-0.80 398.60 0.40L398.60 0.40L398.60 0.40Q394.80 1.60 391.44 1.60L391.44 1.60L391.44 1.60Q389.84 1.60 389.84 0.72L389.84 0.72L389.84 0.72Q389.84 0.48 390.08-0.40L390.08-0.40L390.08-0.40Q390.96-2.16 391.64-17.44L391.64-17.44L391.64-17.44Q392.32-32.72 392.32-40.48L392.32-40.48L392.16-49.20L392.16-49.20Q392.16-49.68 391.68-49.76L391.68-49.76L391.68-49.76Q390.00-50.08 387.84-50.08L387.84-50.08L387.84-50.08Q383.52-50.08 381.44-48.32L381.44-48.32L381.44-48.32Q380.88-47.92 380.36-47.92L380.36-47.92L380.36-47.92Q379.84-47.92 379.84-48.56L379.84-48.56L379.84-48.56Q379.84-49.52 380.84-51.20L380.84-51.20L380.84-51.20Q381.84-52.88 382.96-54.08L382.96-54.08L382.96-54.08Q385.68-56.96 390.40-56.96" fill="#51cacc" stroke="none" stroke-width="none" transform="translate(-226.66669464111328,22.765453491210938)" style="fill: rgb(255, 112, 142); animation-play-state: running; animation-delay: 0s;"></path></g><g class="path" style="transform: scale(0.91); transform-origin: 208.493px -5.15455px 0px; animation: 1.72414s linear 0s infinite normal forwards running breath-da0756de-8ce2-4bfa-9599-a61184bd6e42;"><path d="M429.52-35.44L429.52-35.44L429.52-34.32L443.68-34.32L443.68-34.48L443.68-34.48Q443.76-36.40 443.76-39.32L443.76-39.32L443.76-39.32Q443.76-42.24 443.68-44.44L443.68-44.44L443.68-44.44Q443.60-46.64 443.52-48.16L443.52-48.16L443.52-48.16Q443.44-49.68 443.32-50.80L443.32-50.80L443.32-50.80Q443.20-51.92 443.12-52.52L443.12-52.52L443.12-52.52Q443.04-53.12 443.04-53.60L443.04-53.60L443.04-53.60Q443.04-54.08 443.92-54.72L443.92-54.72L443.92-54.72Q447.76-57.28 452.48-57.28L452.48-57.28L452.48-57.28Q455.44-57.28 455.44-56.24L455.44-56.24L455.44-56.24Q455.44-56.16 455.28-55.36L455.28-55.36L455.28-55.36Q453.76-47.76 453.36-34.32L453.36-34.32L453.36-34.32Q453.12-20.88 453.12-19.92L453.12-19.92L453.12-19.92Q453.12-7.52 454.56-2.72L454.56-2.72L454.56-2.72Q454.80-2.08 454.80-1.64L454.80-1.64L454.80-1.64Q454.80-1.20 454.16-0.64L454.16-0.64L454.16-0.64Q451.20 1.28 446.48 1.28L446.48 1.28L446.48 1.28Q443.44 1.28 443.04-0.80L443.04-0.80L443.04-0.80Q442.80-1.92 442.80-4.28L442.80-4.28L442.80-4.28Q442.80-6.64 443.08-11.52L443.08-11.52L443.08-11.52Q443.36-16.40 443.52-28.56L443.52-28.56L429.52-28.56L429.52-28.56Q429.52-10.32 430.64-2.96L430.64-2.96L430.64-2.96Q430.64-1.04 426.96 0.20L426.96 0.20L426.96 0.20Q423.28 1.44 420.88 1.44L420.88 1.44L420.88 1.44Q418.48 1.44 418.48 0.72L418.48 0.72L418.48 0.72Q418.48 0.24 418.72-0.48L418.72-0.48L418.72-0.48Q420.24-3.84 420.24-27.52L420.24-27.52L420.24-28.56L415.52-28.56L415.52-28.56Q414.88-28.56 414.88-29.04L414.88-29.04L414.88-29.04Q414.88-29.20 415.20-30.28L415.20-30.28L415.20-30.28Q415.52-31.36 416.68-32.80L416.68-32.80L416.68-32.80Q417.84-34.24 419.28-34.24L419.28-34.24L420.16-34.24L420.16-34.24Q420.16-50 418.32-52.40L418.32-52.40L418.00-52.88L418.00-52.88Q417.52-53.28 417.52-53.88L417.52-53.88L417.52-53.88Q417.52-54.48 418.40-54.88L418.40-54.88L418.40-54.88Q419.60-55.60 422.68-56.32L422.68-56.32L422.68-56.32Q425.76-57.04 428.24-57.04L428.24-57.04L428.24-57.04Q430.72-57.04 430.72-55.92L430.72-55.92L430.72-55.68L430.72-55.68Q429.76-47.36 429.52-35.44" fill="#51cacc" stroke="none" stroke-width="none" transform="translate(-226.66669464111328,22.765453491210938)" style="fill: rgb(81, 202, 204); animation-play-state: running; animation-delay: 0s;"></path></g></g>
</g>
</g>
<style id="breath-da0756de-8ce2-4bfa-9599-a61184bd6e42" data-anikit="">@keyframes breath-da0756de-8ce2-4bfa-9599-a61184bd6e42
{
  0% {
    animation-timing-function: cubic-bezier(0.9647,0.2413,-0.0705,0.7911);
    transform: scale(0.9099999999999999);
  }
  51% {
    animation-timing-function: cubic-bezier(0.9226,0.2631,-0.0308,0.7628);
    transform: scale(1.02994);
  }
  100% {
    transform: scale(0.9099999999999999);
  }
}</style></svg>